<svg xmlns="http://www.w3.org/2000/svg" viewBox="0 0 64 64">
  <defs>
    <linearGradient id="qg" x1="0" y1="0" x2="1" y2="1">
      <stop offset="0" stop-color="#f1f5f9"/>
      <stop offset="1" stop-color="#c8d0da"/>
    </linearGradient>
  </defs>
  <!-- chess queen silhouette -->
  <path d="M32 8c2.2 0 4 1.8 4 4s-1.8 4-4 4-4-1.8-4-4 1.8-4 4-4zm-12 8l4 4-3 6 3 2 4-6 4 6 4-6 4 6 3-2-3-6 4-4-6 0-6 6-6-6h-6z" fill="url(#qg)" stroke="#7b8794" stroke-width="1.5"/>
  <path d="M18 44c8 2 20 2 28 0 2.5 3.5 4 7 4 8H14c0-1 1.5-4.5 4-8z" fill="#e2e8f0" stroke="#7b8794" stroke-width="1.5"/>
  <!-- crown jewel -->
  <circle cx="32" cy="12" r="3" fill="#49c7ff" stroke="#1e79a8"/>
</svg>